<svg width="93" height="62" viewBox="0 0 93 62" fill="none" xmlns="http://www.w3.org/2000/svg">
<rect x="2.56787" y="59.4287" width="87.3607" height="2.56943" fill="black"/>
<rect x="89.9316" y="18.3193" width="2.56943" height="41.1109" fill="black"/>
<rect y="18.3193" width="2.56943" height="41.1109" fill="black"/>
<rect x="30.833" y="18.3193" width="2.56943" height="41.1109" fill="black"/>
<rect x="2.56787" y="26.0253" width="51.3887" height="2.56943" fill="black"/>
<rect x="53.958" y="20.8896" width="2.56943" height="12.8472" fill="black"/>
<rect x="69.3748" y="20.8896" width="2.56943" height="12.8472" fill="black"/>
<rect x="56.5283" y="18.3193" width="12.8472" height="2.56943" fill="black"/>
<rect x="61.6665" y="23.4574" width="2.56943" height="7.7083" fill="black"/>
<rect x="59.0962" y="23.4574" width="7.7083" height="2.56943" fill="black"/>
<rect x="56.5283" y="33.736" width="12.8472" height="2.56943" fill="black"/>
<rect x="69.3748" y="26.0253" width="23.1249" height="2.56943" fill="black"/>
<rect x="87.3616" y="13.179" width="2.56943" height="5.13887" fill="black"/>
<rect x="79.6533" y="13.179" width="2.56943" height="5.13887" fill="black"/>
<rect x="82.2212" y="18.3193" width="2.56943" height="5.13887" fill="black"/>
<rect x="69.3748" y="20.8896" width="15.4166" height="2.56943" fill="black"/>
<rect x="84.7913" y="8.04089" width="2.56943" height="5.13887" fill="black"/>
<rect x="77.083" y="8.04089" width="2.56943" height="5.13887" fill="black"/>
<rect x="82.2212" y="5.47058" width="2.56943" height="2.56943" fill="black"/>
<rect x="79.6533" y="2.90039" width="2.56943" height="2.56943" fill="black"/>
<rect x="10.2786" y="2.90039" width="2.56943" height="2.56943" fill="black"/>
<rect x="20.5571" y="2.90039" width="2.56943" height="2.56943" fill="black"/>
<rect x="28.2629" y="2.90039" width="2.56943" height="2.56943" fill="black"/>
<rect x="71.9424" y="2.90039" width="2.56943" height="2.56943" fill="black"/>
<rect x="7.70825" y="5.47058" width="2.56943" height="2.56943" fill="black"/>
<rect x="23.125" y="5.47058" width="2.56943" height="2.56943" fill="black"/>
<rect x="30.833" y="5.47058" width="46.2498" height="2.56943" fill="black"/>
<rect x="5.13818" y="8.04089" width="2.56943" height="5.13887" fill="black"/>
<rect x="2.56787" y="13.179" width="2.56943" height="5.13887" fill="black"/>
<rect x="28.2629" y="13.179" width="2.56943" height="5.13887" fill="black"/>
<rect x="23.125" y="18.3193" width="2.56943" height="5.13887" fill="black"/>
<rect x="5.13818" y="18.3193" width="2.56943" height="5.13887" fill="black"/>
<rect x="5.13818" y="20.8896" width="20.5555" height="2.56943" fill="black"/>
<rect x="7.70825" y="13.179" width="15.4166" height="2.56943" fill="black"/>
<rect x="7.70825" y="13.179" width="2.56943" height="5.13887" fill="black"/>
<rect x="10.2786" y="8.04089" width="2.56943" height="5.13887" fill="black"/>
<rect x="12.8464" y="5.47058" width="5.13887" height="2.56943" fill="black"/>
<rect x="20.5571" y="13.179" width="2.56943" height="5.13887" fill="black"/>
<rect x="17.9868" y="8.04089" width="2.56943" height="5.13887" fill="black"/>
<rect x="35.9712" y="13.179" width="2.56943" height="5.13887" fill="black"/>
<rect x="38.5415" y="18.3193" width="2.56943" height="5.13887" fill="black"/>
<rect x="41.1118" y="20.8896" width="12.8472" height="2.56943" fill="black"/>
<rect x="38.5415" y="31.1658" width="15.4166" height="2.56943" fill="black"/>
<rect x="38.5415" y="38.874" width="46.2498" height="2.56943" fill="black"/>
<rect x="38.5415" y="46.5823" width="46.2498" height="2.56943" fill="black"/>
<rect x="38.5415" y="54.2906" width="46.2498" height="2.56943" fill="black"/>
<rect x="38.5415" y="31.1658" width="2.56943" height="25.6943" fill="black"/>
<rect x="23.125" y="31.1658" width="2.56943" height="25.6943" fill="black"/>
<rect x="7.70825" y="31.1658" width="2.56943" height="25.6943" fill="black"/>
<rect x="7.70825" y="31.1658" width="17.986" height="2.56943" fill="black"/>
<rect x="7.70825" y="54.2906" width="17.986" height="2.56943" fill="black"/>
<rect x="7.70825" y="46.5823" width="17.986" height="2.56943" fill="black"/>
<rect x="7.70825" y="38.874" width="17.986" height="2.56943" fill="black"/>
<rect x="82.2212" y="31.1658" width="2.56943" height="25.6943" fill="black"/>
<rect x="71.9424" y="31.1658" width="12.8472" height="2.56943" fill="black"/>
<rect x="38.5415" y="13.179" width="41.1109" height="2.56943" fill="black"/>
<rect x="25.6926" y="8.04089" width="2.56943" height="5.13887" fill="black"/>
<rect x="33.4033" y="8.04089" width="2.56943" height="5.13887" fill="black"/>
<rect x="12.8464" y="0.33252" width="66.8053" height="2.56943" fill="black"/>
<rect x="12.8464" y="2.90039" width="7.7083" height="2.56943" fill="#FFE303"/>
<rect x="10.2786" y="5.47058" width="2.56943" height="2.56943" fill="#FFE303"/>
<rect x="7.70825" y="8.04089" width="2.56943" height="2.56943" fill="#FFE303"/>
<rect x="5.13818" y="13.179" width="2.56943" height="2.56943" fill="#FFE303"/>
<rect x="2.56787" y="18.3193" width="2.56943" height="2.56943" fill="#FFE303"/>
<rect x="28.2629" y="18.3193" width="2.56943" height="2.56943" fill="#FFE303"/>
<rect x="25.6926" y="13.179" width="2.56943" height="2.56943" fill="#FFE303"/>
<rect x="23.125" y="8.04089" width="2.56943" height="2.56943" fill="#FFE303"/>
<rect x="20.5571" y="5.47058" width="2.56943" height="2.56943" fill="#FFE303"/>
<rect x="7.70825" y="10.6111" width="2.56943" height="2.56943" fill="#F4A716"/>
<rect x="5.13818" y="15.7491" width="2.56943" height="2.56943" fill="#F4A716"/>
<rect x="2.56787" y="20.8896" width="2.56943" height="2.56943" fill="#F4A716"/>
<rect x="25.6926" y="18.3193" width="2.56943" height="2.56943" fill="#F4A716"/>
<rect x="25.6926" y="15.7491" width="2.56943" height="2.56943" fill="#F4A716"/>
<rect x="23.125" y="10.6111" width="2.56943" height="7.7083" fill="#F4A716"/>
<rect x="17.9868" y="5.47058" width="2.56943" height="2.56943" fill="#F4A716"/>
<rect x="12.8464" y="8.04089" width="2.56943" height="2.56943" fill="#5D2E1C"/>
<rect x="15.4165" y="8.04089" width="2.56943" height="2.56943" fill="#5D2E1C"/>
<rect x="15.4165" y="10.6111" width="2.56943" height="2.56943" fill="#834D29"/>
<rect x="10.2786" y="36.3037" width="2.56943" height="2.56943" fill="#834D29"/>
<rect x="20.5571" y="44.0145" width="2.56943" height="2.56943" fill="#834D29"/>
<rect x="15.4165" y="36.3037" width="7.7083" height="2.56943" fill="#834D29"/>
<rect x="10.2786" y="44.0145" width="7.7083" height="2.56943" fill="#834D29"/>
<rect x="12.8464" y="51.7203" width="10.2777" height="2.56943" fill="#834D29"/>
<rect x="10.2786" y="41.4443" width="12.8472" height="2.56943" fill="#834D29"/>
<rect x="10.2786" y="49.1501" width="12.8472" height="2.56943" fill="#834D29"/>
<rect x="10.2786" y="18.3193" width="12.8472" height="2.56943" fill="#834D29"/>
<rect x="12.8464" y="15.7491" width="7.7083" height="2.56943" fill="#834D29"/>
<rect x="12.8464" y="10.6111" width="2.56943" height="2.56943" fill="#5D2E1C"/>
<rect x="10.2786" y="15.7491" width="2.56943" height="2.56943" fill="#5D2E1C"/>
<rect x="7.70825" y="18.3193" width="2.56943" height="2.56943" fill="#5D2E1C"/>
<rect x="10.2786" y="33.736" width="12.8472" height="2.56943" fill="#5D2E1C"/>
<rect x="12.8464" y="36.3037" width="2.56943" height="2.56943" fill="#5D2E1C"/>
<rect x="17.9868" y="44.0145" width="2.56943" height="2.56943" fill="#5D2E1C"/>
<rect x="10.2786" y="51.7203" width="2.56943" height="2.56943" fill="#5D2E1C"/>
<rect x="20.5571" y="10.6111" width="2.56943" height="2.56943" fill="#F4A716"/>
<rect x="20.5571" y="8.04089" width="2.56943" height="2.56943" fill="#F4A716"/>
<rect x="25.6926" y="20.8896" width="5.13887" height="5.13887" fill="#F4A716"/>
<rect x="2.56787" y="23.4574" width="28.2638" height="2.56943" fill="#F4A716"/>
<rect x="23.125" y="2.90039" width="5.13887" height="2.56943" fill="#FFE303"/>
<rect x="28.2629" y="8.04089" width="5.13887" height="2.56943" fill="#FFE303"/>
<rect x="79.6533" y="8.04089" width="5.13887" height="2.56943" fill="#FFE303"/>
<rect x="82.2212" y="10.6111" width="2.56943" height="2.56943" fill="#FFE303"/>
<rect x="84.7913" y="13.179" width="2.56943" height="5.13887" fill="#FFE303"/>
<rect x="87.3616" y="18.3193" width="2.56943" height="2.56943" fill="#FFE303"/>
<rect x="35.9712" y="18.3193" width="2.56943" height="2.56943" fill="#FFE303"/>
<rect x="33.4033" y="13.179" width="2.56943" height="2.56943" fill="#FFE303"/>
<rect x="30.833" y="10.6111" width="2.56943" height="2.56943" fill="#FFE303"/>
<rect x="25.6926" y="5.47058" width="5.13887" height="2.56943" fill="white"/>
<rect x="77.083" y="5.47058" width="5.13887" height="2.56943" fill="white"/>
<rect x="74.5127" y="2.90039" width="5.13887" height="2.56943" fill="#FFE303"/>
<rect x="25.6926" y="31.1658" width="5.13887" height="25.6943" fill="#F0A815"/>
<rect x="2.56787" y="31.1658" width="5.13887" height="25.6943" fill="#F0A815"/>
<rect x="2.56787" y="28.5956" width="28.2638" height="2.56943" fill="#D68917"/>
<rect x="2.56787" y="56.8608" width="28.2638" height="2.56943" fill="#D68917"/>
<rect x="33.4033" y="56.8608" width="56.5275" height="2.56943" fill="#EFA91E"/>
<rect x="33.4033" y="38.874" width="5.13887" height="17.986" fill="#FFCA0C"/>
<rect x="84.7913" y="38.874" width="5.13887" height="17.986" fill="#FFCA0A"/>
<rect width="5.13887" height="7.7083" transform="matrix(1 0 0 -1 33.4033 36.3037)" fill="#F0A815"/>
<rect width="20.5555" height="2.56943" transform="matrix(1 0 0 -1 33.4033 31.1658)" fill="#F0A815"/>
<rect width="17.986" height="2.56943" transform="matrix(1 0 0 -1 71.9424 31.1658)" fill="#F0A815"/>
<rect width="5.13887" height="5.13887" transform="matrix(1 0 0 -1 84.7913 36.3037)" fill="#FFCB0A"/>
<rect width="5.13887" height="2.56943" transform="matrix(1 0 0 -1 33.4033 38.874)" fill="#FEE610"/>
<rect width="12.8472" height="2.56943" transform="matrix(1 0 0 -1 41.1118 36.3037)" fill="#5D2E1C"/>
<rect width="15.4166" height="2.56943" transform="matrix(1 0 0 -1 41.1118 38.874)" fill="#804E2A"/>
<rect width="12.8472" height="2.56943" transform="matrix(1 0 0 -1 56.5283 38.874)" fill="#5E2D1F"/>
<rect width="10.2777" height="2.56943" transform="matrix(1 0 0 -1 69.3748 38.874)" fill="#7F4D2A"/>
<rect width="2.56943" height="2.56943" transform="matrix(1 0 0 -1 53.958 36.3037)" fill="#451F16"/>
<rect width="2.56943" height="2.56943" transform="matrix(1 0 0 -1 69.3748 36.3037)" fill="#451F16"/>
<rect width="10.2777" height="2.56943" transform="matrix(1 0 0 -1 71.9424 36.3037)" fill="#5D2E1C"/>
<rect width="2.56943" height="5.13887" transform="matrix(1 0 0 -1 79.6533 38.874)" fill="#5D2E1C"/>
<rect width="2.56943" height="2.56943" transform="matrix(1 0 0 -1 48.8176 44.0145)" fill="#5D2E1C"/>
<rect width="2.56943" height="2.56943" transform="matrix(1 0 0 -1 71.9424 18.3193)" fill="#5D2E1C"/>
<rect width="2.56943" height="2.56943" transform="matrix(1 0 0 -1 43.6819 13.179)" fill="#5D2E1C"/>
<rect width="2.56943" height="2.56943" transform="matrix(1 0 0 -1 64.2366 10.6111)" fill="#5D2E1C"/>
<rect width="2.56943" height="2.56943" transform="matrix(1 0 0 -1 61.6665 46.5823)" fill="#5D2E1C"/>
<rect width="2.56943" height="2.56943" transform="matrix(1 0 0 -1 74.5127 51.7203)" fill="#5D2E1C"/>
<rect width="2.56943" height="2.56943" transform="matrix(1 0 0 -1 77.083 51.7203)" fill="#5D2E1C"/>
<rect width="2.56943" height="2.56943" transform="matrix(1 0 0 -1 41.1118 54.2906)" fill="#5D2E1C"/>
<rect width="2.56943" height="5.13887" transform="matrix(1 0 0 -1 79.6533 54.2906)" fill="#5D2E1C"/>
<rect width="2.56943" height="5.13887" transform="matrix(1 0 0 -1 79.6533 46.5823)" fill="#5D2E1C"/>
<rect width="5.13887" height="2.56943" transform="matrix(1 0 0 -1 84.7913 38.874)" fill="#FFE301"/>
<rect x="41.1118" y="41.4443" width="7.7083" height="2.56943" fill="#824C28"/>
<rect x="51.3877" y="41.4443" width="28.2638" height="2.56943" fill="#824C28"/>
<rect x="41.1118" y="44.0145" width="20.5555" height="2.56943" fill="#824C28"/>
<rect x="64.2366" y="44.0145" width="15.4166" height="2.56943" fill="#824C28"/>
<rect width="33.4026" height="2.56943" transform="matrix(1 0 0 -1 41.1118 51.7203)" fill="#824C28"/>
<rect width="35.9721" height="2.56943" transform="matrix(1 0 0 -1 43.6819 54.2906)" fill="#824C28"/>
<rect x="33.4033" y="23.4574" width="20.5555" height="2.56943" fill="#FCC80F"/>
<rect x="33.4033" y="20.8896" width="5.13887" height="2.56943" fill="#FCC80F"/>
<rect x="33.4033" y="18.3193" width="2.56943" height="2.56943" fill="#FCC80F"/>
<rect x="30.833" y="15.7491" width="5.13887" height="2.56943" fill="#FCC80F"/>
<rect x="30.833" y="13.179" width="2.56943" height="2.56943" fill="#FCC80F"/>
<rect x="28.2629" y="10.6111" width="2.56943" height="2.56943" fill="#FCC80F"/>
<rect x="71.9424" y="23.4574" width="17.986" height="2.56943" fill="#FCC80F"/>
<rect x="87.3616" y="20.8896" width="2.56943" height="2.56943" fill="#FCC80F"/>
<rect x="84.7913" y="18.3193" width="2.56943" height="5.13887" fill="#FCC80F"/>
<rect x="82.2212" y="13.179" width="2.56943" height="5.13887" fill="#FCC80F"/>
<rect x="79.6533" y="10.6111" width="2.56943" height="2.56943" fill="#FCC80F"/>
<rect x="38.5415" y="15.7491" width="33.4026" height="2.56943" fill="#834D29"/>
<rect x="41.1118" y="18.3193" width="15.4166" height="2.56943" fill="#834D29"/>
<rect x="74.5127" y="15.7491" width="5.13887" height="2.56943" fill="#834D29"/>
<rect x="69.3748" y="18.3193" width="12.8472" height="2.56943" fill="#834D29"/>
<rect x="35.9712" y="8.04089" width="28.2638" height="2.56943" fill="#834D29"/>
<rect x="35.9712" y="10.6111" width="7.7083" height="2.56943" fill="#834D29"/>
<rect x="46.2498" y="10.6111" width="30.8332" height="2.56943" fill="#834D29"/>
<rect x="66.8069" y="8.04089" width="10.2777" height="2.56943" fill="#834D29"/>
<rect x="30.833" y="2.90039" width="41.1109" height="2.56943" fill="#834D29"/>
<rect x="56.5283" y="20.8896" width="12.8472" height="2.56943" fill="#FEE401"/>
<rect x="56.5283" y="31.1658" width="12.8472" height="2.56943" fill="#F1A917"/>
<rect x="56.5283" y="23.4574" width="2.56943" height="7.7083" fill="#FFCB07"/>
<rect x="59.0962" y="26.0253" width="2.56943" height="2.56943" fill="#F0A513"/>
<rect x="59.0962" y="28.5956" width="2.56943" height="2.56943" fill="#FFCB07"/>
<rect x="64.2366" y="26.0253" width="2.56943" height="2.56943" fill="#F0A513"/>
<rect x="64.2366" y="28.5956" width="2.56943" height="2.56943" fill="#FFCB07"/>
<rect x="66.8069" y="23.4574" width="2.56943" height="7.7083" fill="#FFCB07"/>
</svg>
