<svg width="76" height="76" viewBox="0 0 76 76" fill="none" xmlns="http://www.w3.org/2000/svg">
<rect width="3.16667" height="3.16667" transform="translate(6.33398 9.5)" fill="black"/>
<rect width="3.16667" height="3.16667" transform="translate(9.5 6.33398)" fill="black"/>
<rect width="3.16667" height="3.16667" transform="translate(9.5 9.5)" fill="#AFCA8A"/>
<rect width="3.16667" height="3.16667" transform="translate(9.5 12.666)" fill="black"/>
<rect width="3.16667" height="3.16667" transform="translate(9.5 15.834)" fill="black"/>
<rect width="3.16667" height="3.16666" transform="translate(9.5 41.166)" fill="black"/>
<rect width="3.16667" height="3.16667" transform="translate(9.5 44.334)" fill="black"/>
<rect width="3.16667" height="3.16667" transform="translate(9.5 47.5)" fill="black"/>
<rect width="3.16667" height="3.16666" transform="translate(9.5 50.666)" fill="black"/>
<rect width="3.16667" height="3.16667" transform="translate(9.5 53.834)" fill="black"/>
<rect width="3.16667" height="3.16667" transform="translate(12.666 6.33398)" fill="black"/>
<rect width="3.16667" height="3.16667" transform="translate(12.666 9.5)" fill="#AFCA8A"/>
<rect width="3.16667" height="3.16667" transform="translate(12.666 12.666)" fill="#AFCA8A"/>
<rect width="3.16667" height="3.16667" transform="translate(12.666 15.834)" fill="#608438"/>
<rect width="3.16667" height="3.16667" transform="translate(12.666 19)" fill="black"/>
<rect width="3.16667" height="3.16667" transform="translate(12.666 22.166)" fill="black"/>
<rect width="3.16667" height="3.16667" transform="translate(12.666 38)" fill="black"/>
<rect width="3.16667" height="3.16666" transform="translate(12.666 41.166)" fill="#992231"/>
<rect width="3.16667" height="3.16667" transform="translate(12.666 44.334)" fill="#992231"/>
<rect width="3.16667" height="3.16667" transform="translate(12.666 47.5)" fill="#D41730"/>
<rect width="3.16667" height="3.16666" transform="translate(12.666 50.666)" fill="#992231"/>
<rect width="3.16667" height="3.16667" transform="translate(12.666 53.834)" fill="#992231"/>
<rect width="3.16667" height="3.16667" transform="translate(12.666 57)" fill="black"/>
<rect width="3.16667" height="3.16666" transform="translate(12.666 60.166)" fill="black"/>
<rect width="3.16667" height="3.16667" transform="translate(15.834 3.16602)" fill="black"/>
<rect width="3.16667" height="3.16667" transform="translate(15.834 6.33398)" fill="#608438"/>
<rect width="3.16667" height="3.16667" transform="translate(15.834 9.5)" fill="#AFCA8A"/>
<rect width="3.16667" height="3.16667" transform="translate(15.834 12.666)" fill="#AFCA8A"/>
<rect width="3.16667" height="3.16667" transform="translate(15.834 15.834)" fill="#AFCA8A"/>
<rect width="3.16667" height="3.16667" transform="translate(15.834 19)" fill="#608438"/>
<rect width="3.16667" height="3.16667" transform="translate(15.834 22.166)" fill="#608438"/>
<rect width="3.16667" height="3.16667" transform="translate(15.834 25.334)" fill="black"/>
<rect width="3.16667" height="3.16667" transform="translate(15.834 28.5)" fill="black"/>
<rect width="3.16667" height="3.16667" transform="translate(15.834 31.666)" fill="black"/>
<rect width="3.16667" height="3.16667" transform="translate(15.834 34.834)" fill="black"/>
<rect width="3.16667" height="3.16667" transform="translate(15.834 38)" fill="#D41730"/>
<rect width="3.16667" height="3.16666" transform="translate(15.834 41.166)" fill="#D41730"/>
<rect width="3.16667" height="3.16667" transform="translate(15.834 44.334)" fill="#FA8599"/>
<rect width="3.16667" height="3.16667" transform="translate(15.834 47.5)" fill="#D41730"/>
<rect width="3.16667" height="3.16666" transform="translate(15.834 50.666)" fill="#D41730"/>
<rect width="3.16667" height="3.16667" transform="translate(15.834 53.834)" fill="#D41730"/>
<rect width="3.16667" height="3.16667" transform="translate(15.834 57)" fill="#992231"/>
<rect width="3.16667" height="3.16666" transform="translate(15.834 60.166)" fill="#992231"/>
<rect width="3.16667" height="3.16667" transform="translate(15.834 63.334)" fill="black"/>
<rect width="3.16667" height="3.16667" transform="translate(19 3.16602)" fill="black"/>
<rect width="3.16667" height="3.16667" transform="translate(19 6.33398)" fill="#608438"/>
<rect width="3.16667" height="3.16667" transform="translate(19 9.5)" fill="#608438"/>
<rect width="3.16667" height="3.16667" transform="translate(19 12.666)" fill="#AFCA8A"/>
<rect width="3.16667" height="3.16667" transform="translate(19 15.834)" fill="#AFCA8A"/>
<rect width="3.16667" height="3.16667" transform="translate(19 19)" fill="black"/>
<rect width="3.16667" height="3.16667" transform="translate(19 22.166)" fill="black"/>
<rect width="3.16667" height="3.16667" transform="translate(19 25.334)" fill="#608438"/>
<rect width="3.16667" height="3.16667" transform="translate(19 28.5)" fill="#608438"/>
<rect width="3.16667" height="3.16667" transform="translate(19 31.666)" fill="#608438"/>
<rect width="3.16667" height="3.16667" transform="translate(19 34.834)" fill="black"/>
<rect width="3.16667" height="3.16667" transform="translate(19 38)" fill="#D41730"/>
<rect width="3.16667" height="3.16666" transform="translate(19 41.166)" fill="#FA8599"/>
<rect width="3.16667" height="3.16667" transform="translate(19 44.334)" fill="#FA8599"/>
<rect width="3.16667" height="3.16667" transform="translate(19 47.5)" fill="#FA8599"/>
<rect width="3.16667" height="3.16666" transform="translate(19 50.666)" fill="#D41730"/>
<rect width="3.16667" height="3.16667" transform="translate(19 53.834)" fill="#D41730"/>
<rect width="3.16667" height="3.16667" transform="translate(19 57)" fill="#992231"/>
<rect width="3.16667" height="3.16666" transform="translate(19 60.166)" fill="#992231"/>
<rect width="3.16667" height="3.16667" transform="translate(19 63.334)" fill="#992231"/>
<rect width="3.16667" height="3.16666" transform="translate(19 66.5)" fill="black"/>
<rect width="3.16667" height="3.16667" transform="translate(22.166 3.16602)" fill="black"/>
<rect width="3.16667" height="3.16667" transform="translate(22.166 6.33398)" fill="#608438"/>
<rect width="3.16667" height="3.16667" transform="translate(22.166 9.5)" fill="#608438"/>
<rect width="3.16667" height="3.16667" transform="translate(22.166 12.666)" fill="#AFCA8A"/>
<rect width="3.16667" height="3.16667" transform="translate(22.166 15.834)" fill="#AFCA8A"/>
<rect width="3.16667" height="3.16667" transform="translate(22.166 19)" fill="#AFCA8A"/>
<rect width="3.16667" height="3.16667" transform="translate(22.166 22.166)" fill="black"/>
<rect width="3.16667" height="3.16667" transform="translate(22.166 25.334)" fill="black"/>
<rect width="3.16667" height="3.16667" transform="translate(22.166 28.5)" fill="black"/>
<rect width="3.16667" height="3.16667" transform="translate(22.166 31.666)" fill="black"/>
<rect width="3.16667" height="3.16667" transform="translate(22.166 34.834)" fill="#608438"/>
<rect width="3.16667" height="3.16667" transform="translate(22.166 38)" fill="#D41730"/>
<rect width="3.16667" height="3.16666" transform="translate(22.166 41.166)" fill="#FA8599"/>
<rect width="3.16667" height="3.16667" transform="translate(22.166 44.334)" fill="#FA8599"/>
<rect width="3.16667" height="3.16667" transform="translate(22.166 47.5)" fill="#FA8599"/>
<rect width="3.16667" height="3.16666" transform="translate(22.166 50.666)" fill="#D41730"/>
<rect width="3.16667" height="3.16667" transform="translate(22.166 53.834)" fill="#D41730"/>
<rect width="3.16667" height="3.16667" transform="translate(22.166 57)" fill="#992231"/>
<rect width="3.16667" height="3.16666" transform="translate(22.166 60.166)" fill="#992231"/>
<rect width="3.16667" height="3.16667" transform="translate(22.166 63.334)" fill="#992231"/>
<rect width="3.16667" height="3.16666" transform="translate(22.166 66.5)" fill="black"/>
<rect width="3.16667" height="3.16667" transform="translate(25.334 3.16602)" fill="black"/>
<rect width="3.16667" height="3.16667" transform="translate(25.334 6.33398)" fill="#608438"/>
<rect width="3.16667" height="3.16667" transform="translate(25.334 9.5)" fill="#608438"/>
<rect width="3.16667" height="3.16667" transform="translate(25.334 12.666)" fill="#AFCA8A"/>
<rect width="3.16667" height="3.16667" transform="translate(25.334 15.834)" fill="#AFCA8A"/>
<rect width="3.16667" height="3.16667" transform="translate(25.334 19)" fill="#AFCA8A"/>
<rect width="3.16667" height="3.16667" transform="translate(25.334 22.166)" fill="black"/>
<rect width="3.16667" height="3.16667" transform="translate(25.334 31.666)" fill="black"/>
<rect width="3.16667" height="3.16667" transform="translate(25.334 34.834)" fill="#D41730"/>
<rect width="3.16667" height="3.16667" transform="translate(25.334 38)" fill="#FA8599"/>
<rect width="3.16667" height="3.16666" transform="translate(25.334 41.166)" fill="#FA8599"/>
<rect width="3.16667" height="3.16667" transform="translate(25.334 44.334)" fill="#FA8599"/>
<rect width="3.16667" height="3.16667" transform="translate(25.334 47.5)" fill="#FA8599"/>
<rect width="3.16667" height="3.16666" transform="translate(25.334 50.666)" fill="#D41730"/>
<rect width="3.16667" height="3.16667" transform="translate(25.334 53.834)" fill="#D41730"/>
<rect width="3.16667" height="3.16667" transform="translate(25.334 57)" fill="#992231"/>
<rect width="3.16667" height="3.16666" transform="translate(25.334 60.166)" fill="#992231"/>
<rect width="3.16667" height="3.16667" transform="translate(25.334 63.334)" fill="#992231"/>
<rect width="3.16667" height="3.16666" transform="translate(25.334 66.5)" fill="black"/>
<rect width="3.16667" height="3.16667" transform="translate(28.5 3.16602)" fill="black"/>
<rect width="3.16667" height="3.16667" transform="translate(28.5 6.33398)" fill="#466027"/>
<rect width="3.16667" height="3.16667" transform="translate(28.5 9.5)" fill="#608438"/>
<rect width="3.16667" height="3.16667" transform="translate(28.5 12.666)" fill="#AFCA8A"/>
<rect width="3.16667" height="3.16667" transform="translate(28.5 15.834)" fill="#AFCA8A"/>
<rect width="3.16667" height="3.16667" transform="translate(28.5 19)" fill="#AFCA8A"/>
<rect width="3.16667" height="3.16667" transform="translate(28.5 22.166)" fill="#608438"/>
<rect width="3.16667" height="3.16667" transform="translate(28.5 25.334)" fill="black"/>
<rect width="3.16667" height="3.16667" transform="translate(28.5 31.666)" fill="black"/>
<rect width="3.16667" height="3.16667" transform="translate(28.5 34.834)" fill="#D41730"/>
<rect width="3.16667" height="3.16667" transform="translate(28.5 38)" fill="#D41730"/>
<rect width="3.16667" height="3.16666" transform="translate(28.5 41.166)" fill="#D41730"/>
<rect width="3.16667" height="3.16667" transform="translate(28.5 44.334)" fill="#FA8599"/>
<rect width="3.16667" height="3.16667" transform="translate(28.5 47.5)" fill="#FA8599"/>
<rect width="3.16667" height="3.16666" transform="translate(28.5 50.666)" fill="#D41730"/>
<rect width="3.16667" height="3.16667" transform="translate(28.5 53.834)" fill="#D41730"/>
<rect width="3.16667" height="3.16667" transform="translate(28.5 57)" fill="#992231"/>
<rect width="3.16667" height="3.16666" transform="translate(28.5 60.166)" fill="#992231"/>
<rect width="3.16667" height="3.16667" transform="translate(28.5 63.334)" fill="#D41730"/>
<rect width="3.16667" height="3.16666" transform="translate(28.5 66.5)" fill="black"/>
<rect width="3.16667" height="3.16667" transform="translate(31.666 3.16602)" fill="black"/>
<rect width="3.16667" height="3.16667" transform="translate(31.666 6.33398)" fill="#466027"/>
<rect width="3.16667" height="3.16667" transform="translate(31.666 9.5)" fill="#466027"/>
<rect width="3.16667" height="3.16667" transform="translate(31.666 12.666)" fill="#AFCA8A"/>
<rect width="3.16667" height="3.16667" transform="translate(31.666 15.834)" fill="#AFCA8A"/>
<rect width="3.16667" height="3.16667" transform="translate(31.666 19)" fill="#AFCA8A"/>
<rect width="3.16667" height="3.16667" transform="translate(31.666 22.166)" fill="black"/>
<rect width="3.16667" height="3.16667" transform="translate(31.666 25.334)" fill="#608438"/>
<rect width="3.16667" height="3.16667" transform="translate(31.666 28.5)" fill="black"/>
<rect width="3.16667" height="3.16667" transform="translate(31.666 31.666)" fill="black"/>
<rect width="3.16667" height="3.16667" transform="translate(31.666 34.834)" fill="#D41730"/>
<rect width="3.16667" height="3.16667" transform="translate(31.666 38)" fill="#D41730"/>
<rect width="3.16667" height="3.16666" transform="translate(31.666 41.166)" fill="#D41730"/>
<rect width="3.16667" height="3.16667" transform="translate(31.666 44.334)" fill="#FA8599"/>
<rect width="3.16667" height="3.16667" transform="translate(31.666 47.5)" fill="#FA8599"/>
<rect width="3.16667" height="3.16666" transform="translate(31.666 50.666)" fill="#D41730"/>
<rect width="3.16667" height="3.16667" transform="translate(31.666 53.834)" fill="#D41730"/>
<rect width="3.16667" height="3.16667" transform="translate(31.666 57)" fill="#992231"/>
<rect width="3.16667" height="3.16666" transform="translate(31.666 60.166)" fill="#D41730"/>
<rect width="3.16667" height="3.16667" transform="translate(31.666 63.334)" fill="#D41730"/>
<rect width="3.16667" height="3.16666" transform="translate(31.666 66.5)" fill="black"/>
<rect width="3.16667" height="3.16667" transform="translate(34.834 3.16602)" fill="black"/>
<rect width="3.16667" height="3.16667" transform="translate(34.834 6.33398)" fill="#466027"/>
<rect width="3.16667" height="3.16667" transform="translate(34.834 9.5)" fill="#466027"/>
<rect width="3.16667" height="3.16667" transform="translate(34.834 12.666)" fill="#608438"/>
<rect width="3.16667" height="3.16667" transform="translate(34.834 15.834)" fill="#AFCA8A"/>
<rect width="3.16667" height="3.16667" transform="translate(34.834 19)" fill="#AFCA8A"/>
<rect width="3.16667" height="3.16667" transform="translate(34.834 22.166)" fill="black"/>
<rect width="3.16667" height="3.16667" transform="translate(34.834 25.334)" fill="black"/>
<rect width="3.16667" height="3.16667" transform="translate(34.834 28.5)" fill="#608438"/>
<rect width="3.16667" height="3.16667" transform="translate(34.834 31.666)" fill="black"/>
<rect width="3.16667" height="3.16667" transform="translate(34.834 34.834)" fill="black"/>
<rect width="3.16667" height="3.16667" transform="translate(34.834 38)" fill="#D41730"/>
<rect width="3.16667" height="3.16666" transform="translate(34.834 41.166)" fill="#D41730"/>
<rect width="3.16667" height="3.16667" transform="translate(34.834 44.334)" fill="#D41730"/>
<rect width="3.16667" height="3.16667" transform="translate(34.834 47.5)" fill="#D41730"/>
<rect width="3.16667" height="3.16666" transform="translate(34.834 50.666)" fill="#D41730"/>
<rect width="3.16667" height="3.16667" transform="translate(34.834 53.834)" fill="#992231"/>
<rect width="3.16667" height="3.16667" transform="translate(34.834 57)" fill="#992231"/>
<rect width="3.16667" height="3.16666" transform="translate(34.834 60.166)" fill="#D41730"/>
<rect width="3.16667" height="3.16667" transform="translate(34.834 63.334)" fill="black"/>
<rect width="3.16667" height="3.16667" transform="translate(38 6.33398)" fill="black"/>
<rect width="3.16667" height="3.16667" transform="translate(38 9.5)" fill="#466027"/>
<rect width="3.16667" height="3.16667" transform="translate(38 12.666)" fill="#608438"/>
<rect width="3.16667" height="3.16667" transform="translate(38 15.834)" fill="#AFCA8A"/>
<rect width="3.16667" height="3.16667" transform="translate(38 19)" fill="#AFCA8A"/>
<rect width="3.16667" height="3.16667" transform="translate(38 22.166)" fill="black"/>
<rect width="3.16667" height="3.16667" transform="translate(38 28.5)" fill="black"/>
<rect width="3.16667" height="3.16667" transform="translate(38 31.666)" fill="#608438"/>
<rect width="3.16667" height="3.16667" transform="translate(38 34.834)" fill="#992231"/>
<rect width="3.16667" height="3.16667" transform="translate(38 38)" fill="#992231"/>
<rect width="3.16667" height="3.16666" transform="translate(38 41.166)" fill="#D41730"/>
<rect width="3.16667" height="3.16667" transform="translate(38 44.334)" fill="#D41730"/>
<rect width="3.16667" height="3.16667" transform="translate(38 47.5)" fill="#D41730"/>
<rect width="3.16667" height="3.16666" transform="translate(38 50.666)" fill="#D41730"/>
<rect width="3.16667" height="3.16667" transform="translate(38 53.834)" fill="#D41730"/>
<rect width="3.16667" height="3.16667" transform="translate(38 57)" fill="#D41730"/>
<rect width="3.16667" height="3.16666" transform="translate(38 60.166)" fill="#D41730"/>
<rect width="3.16667" height="3.16667" transform="translate(38 63.334)" fill="black"/>
<rect width="3.16666" height="3.16667" transform="translate(41.166 6.33398)" fill="black"/>
<rect width="3.16666" height="3.16667" transform="translate(41.166 9.5)" fill="#466027"/>
<rect width="3.16666" height="3.16667" transform="translate(41.166 12.666)" fill="#608438"/>
<rect width="3.16666" height="3.16667" transform="translate(41.166 15.834)" fill="#AFCA8A"/>
<rect width="3.16666" height="3.16667" transform="translate(41.166 19)" fill="black"/>
<rect width="3.16666" height="3.16667" transform="translate(41.166 31.666)" fill="black"/>
<rect width="3.16666" height="3.16667" transform="translate(41.166 34.834)" fill="#608438"/>
<rect width="3.16666" height="3.16667" transform="translate(41.166 38)" fill="#992231"/>
<rect width="3.16666" height="3.16666" transform="translate(41.166 41.166)" fill="#D41730"/>
<rect width="3.16666" height="3.16667" transform="translate(41.166 44.334)" fill="#D41730"/>
<rect width="3.16666" height="3.16667" transform="translate(41.166 47.5)" fill="#D41730"/>
<rect width="3.16666" height="3.16666" transform="translate(41.166 50.666)" fill="#D41730"/>
<rect width="3.16666" height="3.16667" transform="translate(41.166 53.834)" fill="#D41730"/>
<rect width="3.16666" height="3.16667" transform="translate(41.166 57)" fill="#D41730"/>
<rect width="3.16666" height="3.16666" transform="translate(41.166 60.166)" fill="#992231"/>
<rect width="3.16666" height="3.16667" transform="translate(41.166 63.334)" fill="black"/>
<rect width="3.16667" height="3.16667" transform="translate(44.334 9.5)" fill="black"/>
<rect width="3.16667" height="3.16667" transform="translate(44.334 12.666)" fill="#466027"/>
<rect width="3.16667" height="3.16667" transform="translate(44.334 15.834)" fill="#AFCA8A"/>
<rect width="3.16667" height="3.16667" transform="translate(44.334 19)" fill="black"/>
<rect width="3.16667" height="3.16667" transform="translate(44.334 31.666)" fill="black"/>
<rect width="3.16667" height="3.16667" transform="translate(44.334 34.834)" fill="#992231"/>
<rect width="3.16667" height="3.16667" transform="translate(44.334 38)" fill="#992231"/>
<rect width="3.16667" height="3.16666" transform="translate(44.334 41.166)" fill="#992231"/>
<rect width="3.16667" height="3.16667" transform="translate(44.334 44.334)" fill="#992231"/>
<rect width="3.16667" height="3.16667" transform="translate(44.334 47.5)" fill="#992231"/>
<rect width="3.16667" height="3.16666" transform="translate(44.334 50.666)" fill="#992231"/>
<rect width="3.16667" height="3.16667" transform="translate(44.334 53.834)" fill="#992231"/>
<rect width="3.16667" height="3.16667" transform="translate(44.334 57)" fill="#992231"/>
<rect width="3.16667" height="3.16666" transform="translate(44.334 60.166)" fill="#992231"/>
<rect width="3.16667" height="3.16667" transform="translate(44.334 63.334)" fill="#992231"/>
<rect width="3.16667" height="3.16666" transform="translate(44.334 66.5)" fill="black"/>
<rect width="3.16667" height="3.16667" transform="translate(47.5 9.5)" fill="black"/>
<rect width="3.16667" height="3.16667" transform="translate(47.5 12.666)" fill="#466027"/>
<rect width="3.16667" height="3.16667" transform="translate(47.5 15.834)" fill="#608438"/>
<rect width="3.16667" height="3.16667" transform="translate(47.5 19)" fill="black"/>
<rect width="3.16667" height="3.16667" transform="translate(47.5 31.666)" fill="black"/>
<rect width="3.16667" height="3.16667" transform="translate(47.5 34.834)" fill="#992231"/>
<rect width="3.16667" height="3.16667" transform="translate(47.5 38)" fill="#992231"/>
<rect width="3.16667" height="3.16666" transform="translate(47.5 41.166)" fill="#FA8599"/>
<rect width="3.16667" height="3.16667" transform="translate(47.5 44.334)" fill="#FA8599"/>
<rect width="3.16667" height="3.16667" transform="translate(47.5 47.5)" fill="#D41730"/>
<rect width="3.16667" height="3.16666" transform="translate(47.5 50.666)" fill="#D41730"/>
<rect width="3.16667" height="3.16667" transform="translate(47.5 53.834)" fill="#D41730"/>
<rect width="3.16667" height="3.16667" transform="translate(47.5 57)" fill="#D41730"/>
<rect width="3.16667" height="3.16666" transform="translate(47.5 60.166)" fill="#992231"/>
<rect width="3.16667" height="3.16667" transform="translate(47.5 63.334)" fill="#992231"/>
<rect width="3.16667" height="3.16666" transform="translate(47.5 66.5)" fill="black"/>
<rect width="3.16666" height="3.16667" transform="translate(50.666 12.666)" fill="black"/>
<rect width="3.16666" height="3.16667" transform="translate(50.666 15.834)" fill="black"/>
<rect width="3.16666" height="3.16667" transform="translate(50.666 31.666)" fill="black"/>
<rect width="3.16666" height="3.16667" transform="translate(50.666 34.834)" fill="#992231"/>
<rect width="3.16666" height="3.16667" transform="translate(50.666 38)" fill="#FA8599"/>
<rect width="3.16666" height="3.16666" transform="translate(50.666 41.166)" fill="#FA8599"/>
<rect width="3.16666" height="3.16667" transform="translate(50.666 44.334)" fill="#FA8599"/>
<rect width="3.16666" height="3.16667" transform="translate(50.666 47.5)" fill="#D41730"/>
<rect width="3.16666" height="3.16666" transform="translate(50.666 50.666)" fill="#D41730"/>
<rect width="3.16666" height="3.16667" transform="translate(50.666 53.834)" fill="#D41730"/>
<rect width="3.16666" height="3.16667" transform="translate(50.666 57)" fill="#D41730"/>
<rect width="3.16666" height="3.16666" transform="translate(50.666 60.166)" fill="#992231"/>
<rect width="3.16666" height="3.16667" transform="translate(50.666 63.334)" fill="#992231"/>
<rect width="3.16666" height="3.16666" transform="translate(50.666 66.5)" fill="black"/>
<rect width="3.16667" height="3.16667" transform="translate(53.834 31.666)" fill="black"/>
<rect width="3.16667" height="3.16667" transform="translate(53.834 34.834)" fill="#992231"/>
<rect width="3.16667" height="3.16667" transform="translate(53.834 38)" fill="#D41730"/>
<rect width="3.16667" height="3.16666" transform="translate(53.834 41.166)" fill="#FA8599"/>
<rect width="3.16667" height="3.16667" transform="translate(53.834 44.334)" fill="#D41730"/>
<rect width="3.16667" height="3.16667" transform="translate(53.834 47.5)" fill="#D41730"/>
<rect width="3.16667" height="3.16666" transform="translate(53.834 50.666)" fill="#D41730"/>
<rect width="3.16667" height="3.16667" transform="translate(53.834 53.834)" fill="#D41730"/>
<rect width="3.16667" height="3.16667" transform="translate(53.834 57)" fill="#D41730"/>
<rect width="3.16667" height="3.16666" transform="translate(53.834 60.166)" fill="#992231"/>
<rect width="3.16667" height="3.16667" transform="translate(53.834 63.334)" fill="#992231"/>
<rect width="3.16667" height="3.16666" transform="translate(53.834 66.5)" fill="black"/>
<rect width="3.16667" height="3.16667" transform="translate(57 34.834)" fill="black"/>
<rect width="3.16667" height="3.16667" transform="translate(57 38)" fill="#D41730"/>
<rect width="3.16667" height="3.16666" transform="translate(57 41.166)" fill="#D41730"/>
<rect width="3.16667" height="3.16667" transform="translate(57 44.334)" fill="#D41730"/>
<rect width="3.16667" height="3.16667" transform="translate(57 47.5)" fill="#D41730"/>
<rect width="3.16667" height="3.16666" transform="translate(57 50.666)" fill="#D41730"/>
<rect width="3.16667" height="3.16667" transform="translate(57 53.834)" fill="#D41730"/>
<rect width="3.16667" height="3.16667" transform="translate(57 57)" fill="#992231"/>
<rect width="3.16667" height="3.16666" transform="translate(57 60.166)" fill="#992231"/>
<rect width="3.16667" height="3.16667" transform="translate(57 63.334)" fill="black"/>
<rect width="3.16666" height="3.16667" transform="translate(60.166 34.834)" fill="black"/>
<rect width="3.16666" height="3.16667" transform="translate(60.166 38)" fill="#992231"/>
<rect width="3.16666" height="3.16666" transform="translate(60.166 41.166)" fill="#992231"/>
<rect width="3.16666" height="3.16667" transform="translate(60.166 44.334)" fill="#D41730"/>
<rect width="3.16666" height="3.16667" transform="translate(60.166 47.5)" fill="#D41730"/>
<rect width="3.16666" height="3.16666" transform="translate(60.166 50.666)" fill="#D41730"/>
<rect width="3.16666" height="3.16667" transform="translate(60.166 53.834)" fill="#992231"/>
<rect width="3.16666" height="3.16667" transform="translate(60.166 57)" fill="#992231"/>
<rect width="3.16666" height="3.16666" transform="translate(60.166 60.166)" fill="black"/>
<rect width="3.16667" height="3.16667" transform="translate(63.334 38)" fill="black"/>
<rect width="3.16667" height="3.16666" transform="translate(63.334 41.166)" fill="black"/>
<rect width="3.16667" height="3.16667" transform="translate(63.334 44.334)" fill="#992231"/>
<rect width="3.16667" height="3.16667" transform="translate(63.334 47.5)" fill="#992231"/>
<rect width="3.16667" height="3.16666" transform="translate(63.334 50.666)" fill="#992231"/>
<rect width="3.16667" height="3.16667" transform="translate(63.334 53.834)" fill="black"/>
<rect width="3.16667" height="3.16667" transform="translate(63.334 57)" fill="black"/>
<rect width="3.16666" height="3.16667" transform="translate(66.5 44.334)" fill="black"/>
<rect width="3.16666" height="3.16667" transform="translate(66.5 47.5)" fill="black"/>
<rect width="3.16666" height="3.16666" transform="translate(66.5 50.666)" fill="black"/>
</svg>
